<?xml version="1.0" encoding="utf-8"?>
<!-- Generator: Adobe Illustrator 19.0.0, SVG Export Plug-In . SVG Version: 6.00 Build 0)  -->
<svg xmlns="http://www.w3.org/2000/svg" xmlns:xlink="http://www.w3.org/1999/xlink" version="1.1" id="Layer_1" x="0px" y="0px" viewBox="0 2 98 98" style="enable-background:new 0 2 98 98;" xml:space="preserve" width="512" height="512">
<style type="text/css">
	.st0{fill:url(#SVGID_1_);}
	.st1{fill:url(#SVGID_2_);}
	.st2{fill:url(#SVGID_3_);}
	.st3{fill:url(#SVGID_4_);}
</style>
<g>
	
		<linearGradient id="SVGID_1_" gradientUnits="userSpaceOnUse" x1="49.1" y1="94.25" x2="49.1" y2="11.7629" gradientTransform="matrix(1 0 0 -1 0 104)">
		<stop offset="0" style="stop-color:#00EFD1"/>
		<stop offset="1" style="stop-color:#00ACEA"/>
	</linearGradient>
	<path class="st0" d="M63.8,26.2v-6.5c0-2.8-2.2-5-5-5H39.2c-2.8,0-5,2.2-5,5v6.5H13.3v6h6.3l5,56.4c0.1,1.5,1.4,2.7,3,2.7h42.9   c1.6,0,2.9-1.2,3-2.7l5-56.4h6.4v-6C84.9,26.2,63.8,26.2,63.8,26.2z M40.2,20.7h17.6v5.5H40.2V20.7z M67.7,85.3H30.2l-4.7-53.1   h46.7L67.7,85.3z"/>
	
		<linearGradient id="SVGID_2_" gradientUnits="userSpaceOnUse" x1="59.95" y1="94.25" x2="59.95" y2="11.7629" gradientTransform="matrix(1 0 0 -1 0 104)">
		<stop offset="0" style="stop-color:#00EFD1"/>
		<stop offset="1" style="stop-color:#00ACEA"/>
	</linearGradient>
	<polygon class="st1" points="63.6,41.1 57.6,40.9 56.3,76.4 62.3,76.6  "/>
	
		<linearGradient id="SVGID_3_" gradientUnits="userSpaceOnUse" x1="38.05" y1="94.25" x2="38.05" y2="11.7629" gradientTransform="matrix(1 0 0 -1 0 104)">
		<stop offset="0" style="stop-color:#00EFD1"/>
		<stop offset="1" style="stop-color:#00ACEA"/>
	</linearGradient>
	<polygon class="st2" points="41.7,76.4 40.4,40.9 34.4,41.1 35.7,76.6  "/>
	
		<linearGradient id="SVGID_4_" gradientUnits="userSpaceOnUse" x1="49" y1="94.25" x2="49" y2="11.7629" gradientTransform="matrix(1 0 0 -1 0 104)">
		<stop offset="0" style="stop-color:#00EFD1"/>
		<stop offset="1" style="stop-color:#00ACEA"/>
	</linearGradient>
	<rect x="46" y="41" class="st3" width="6" height="35.5"/>
</g>
</svg>
