<svg width="23" height="23" viewBox="0 0 23 23" fill="none" xmlns="http://www.w3.org/2000/svg">
<g id="people">
<path id="Stroke 1 Copy" d="M1.91357 16.6558C1.91357 14.5933 4.66357 14.5933 6.03857 13.2183C6.72607 12.5308 4.66357 12.5308 4.66357 9.09326C4.66357 6.80182 5.58001 5.65576 7.41358 5.65576C9.24714 5.65576 10.1636 6.80182 10.1636 9.09326C10.1636 12.5308 8.10108 12.5308 8.78858 13.2183C10.1636 14.5933 12.9136 14.5933 12.9136 16.6558" stroke="#6B7386" stroke-linecap="round"/>
<path id="Stroke 1 Copy 2" d="M11.9922 15.0453C12.5119 14.6871 13.1866 14.4292 13.8323 14.1182C14.3371 13.8751 14.8241 13.5995 15.2053 13.2183C15.8928 12.5308 13.8303 12.5308 13.8303 9.09326C13.8303 6.80182 14.7468 5.65576 16.5803 5.65576C18.4139 5.65576 19.3303 6.80182 19.3303 9.09326C19.3303 12.5308 17.2678 12.5308 17.9553 13.2183C19.3303 14.5933 22.0803 14.5933 22.0803 16.6558" stroke="#6B7386" stroke-linecap="round"/>
</g>
</svg>
