<svg width="19" height="19" viewBox="0 0 19 19" fill="none" xmlns="http://www.w3.org/2000/svg">
<g clip-path="url(#clip0)">
<path d="M15.2275 5.47156C15.2275 2.46686 12.783 0.0223389 9.77832 0.0223389C6.77362 0.0223389 4.3291 2.46686 4.3291 5.47156C4.3291 8.29837 6.49279 10.629 9.25098 10.8952V14.5067H7.31738C7.02615 14.5067 6.79004 14.7428 6.79004 15.0341C6.79004 15.3253 7.02615 15.5614 7.31738 15.5614H9.25098V17.495C9.25098 17.7862 9.48709 18.0223 9.77832 18.0223C10.0696 18.0223 10.3057 17.7862 10.3057 17.495V15.5614H12.2393C12.5305 15.5614 12.7666 15.3253 12.7666 15.0341C12.7666 14.7428 12.5305 14.5067 12.2393 14.5067H10.3057V10.8952C13.0638 10.629 15.2275 8.29837 15.2275 5.47156ZM5.38379 5.47156C5.38379 3.04841 7.35518 1.07703 9.77832 1.07703C12.2015 1.07703 14.1729 3.04841 14.1729 5.47156C14.1729 7.8947 12.2015 9.86609 9.77832 9.86609C7.35518 9.86609 5.38379 7.8947 5.38379 5.47156Z" fill="#FF49ED"/>
</g>
<defs>
<clipPath id="clip0">
<rect width="18" height="18" fill="white" transform="translate(0.77832 0.0223389)"/>
</clipPath>
</defs>
</svg>
