<svg width="100" height="65" viewBox="0 0 100 65" fill="none" xmlns="http://www.w3.org/2000/svg">
<path d="M5.44224 64.7938C4.76097 64.7938 4.0935 64.6912 3.43896 64.4872C2.78442 64.283 2.2609 63.9523 1.8684 63.4953C1.10841 62.606 0.729126 61.3914 0.729126 59.8525C0.729126 58.3374 1.10841 57.1235 1.8684 56.2092C2.65368 55.2714 3.66136 54.8028 4.89229 54.8028C5.54654 54.8028 6.12293 54.9233 6.62059 55.1632C7.14411 55.4519 7.56333 55.825 7.87738 56.2812V52.1696H9.21261C9.57896 52.1696 9.89331 52.296 10.1554 52.5482C10.4168 52.8007 10.5481 53.0836 10.5481 53.396V60.4293C10.5481 62.1371 10.0111 63.2913 8.93793 63.8922C7.86388 64.4933 6.69903 64.7938 5.44224 64.7938ZM5.59941 56.9668C4.91814 56.9668 4.38198 57.2193 3.98891 57.7241C3.59613 58.2054 3.40017 58.8783 3.40017 59.7441C3.40017 60.7061 3.59613 61.4392 3.98891 61.9442C4.38198 62.4493 4.94458 62.7016 5.67785 62.7016C6.38469 62.7016 6.93465 62.4493 7.32772 61.9442C7.69378 61.4392 7.87738 60.7061 7.87738 59.7441C7.87738 58.8783 7.68085 58.193 7.28835 57.688C6.86913 57.2074 6.30625 56.9668 5.59941 56.9668Z" fill="#24CDB0"/>
<path d="M15.9382 64.7938C14.4458 64.7938 13.2804 64.3489 12.4428 63.4591C11.6044 62.5936 11.1857 61.3555 11.1857 59.7441C11.1857 58.2054 11.5914 57.0029 12.4037 56.1372C13.2413 55.2476 14.4064 54.8028 15.8991 54.8028C17.4703 54.8028 18.6877 55.2352 19.5514 56.1013C20.3896 56.9911 20.8088 58.2292 20.8088 59.8164C20.8088 59.9127 20.8088 59.9966 20.8088 60.0689C20.8088 60.1407 20.8088 60.1895 20.8088 60.213C20.8088 60.3336 20.795 60.4175 20.7694 60.4655H13.9743C14.0001 61.2112 14.1967 61.7638 14.5636 62.1247C14.9038 62.5097 15.4141 62.7016 16.0954 62.7016C16.5404 62.7016 16.92 62.6179 17.2344 62.4493C17.3131 62.4256 17.3849 62.3833 17.4504 62.3232C17.5157 62.2633 17.5881 62.1968 17.6665 62.1247C17.6924 62.0524 17.7906 61.9566 17.961 61.8361C18.1308 61.716 18.3733 61.6556 18.6877 61.6556H20.6516C20.3631 62.6659 19.8132 63.4354 19.0017 63.9642C18.1897 64.5175 17.1688 64.7938 15.9382 64.7938ZM15.9776 56.8945C15.4012 56.8945 14.93 57.0631 14.5636 57.3995C14.1967 57.7365 14.0001 58.2173 13.9743 58.8421H17.9808C17.928 58.193 17.7449 57.7122 17.4309 57.3995C17.0901 57.0631 16.6063 56.8945 15.9776 56.8945Z" fill="#24CDB0"/>
<path d="M30.7548 64.6133H29.3802C28.9874 64.6133 28.6664 64.4995 28.4179 64.2708C28.1688 64.0425 28.0446 63.7478 28.0446 63.3871V58.4816C28.0446 57.9045 27.8544 57.4842 27.4754 57.2193C27.0953 56.9549 26.67 56.8224 26.1988 56.8224C25.7276 56.8224 25.3084 56.9549 24.9417 57.2193C24.5751 57.4842 24.3921 57.9045 24.3921 58.4816V64.6133H21.6429V58.9864C21.6429 57.3517 22.1072 56.2577 23.037 55.7044C23.9663 55.1513 24.994 54.851 26.1204 54.8027C27.2723 54.8027 28.3325 55.0792 29.3014 55.6321C30.27 56.1857 30.7548 57.3037 30.7548 58.9864V64.6133Z" fill="#24CDB0"/>
<path d="M35.1512 64.6421C34.5984 64.6421 34.0197 64.6207 33.4154 64.5774C32.4072 64.5051 31.9032 63.9164 31.9032 62.8097V52.2057H33.3172C33.6571 52.2057 33.9585 52.3263 34.2202 52.5662C34.482 52.8068 34.613 53.0955 34.613 53.4319V55.055H36.2235V55.5601C36.2235 55.9208 36.0922 56.2155 35.8307 56.4438C35.5687 56.6726 35.2546 56.7863 34.8883 56.7863H34.613V62.1247C34.613 62.5337 34.8748 62.7377 35.3989 62.7377H36.2235V64.6133C35.8779 64.6326 35.5201 64.6421 35.1512 64.6421Z" fill="#24CDB0"/>
<path d="M40.1606 64.7938C39.2181 64.7938 38.3932 64.5592 37.6864 64.0903C36.9793 63.6217 36.6255 62.8459 36.6255 61.7638C36.6255 60.7539 36.9462 60.0327 37.5881 59.5997C38.2291 59.167 39.0475 58.8783 40.0428 58.7342C40.1735 58.7342 40.3307 58.7163 40.5143 58.6801C40.6968 58.644 40.9068 58.6142 41.1424 58.5899C42.2943 58.4455 42.8707 58.1334 42.8707 57.6518C42.8707 57.2914 42.6676 57.057 42.2619 56.9486C41.8559 56.8404 41.4826 56.7863 41.1424 56.7863C40.7755 56.7863 40.4485 56.8349 40.1606 56.9306C39.8721 57.027 39.6629 57.2074 39.5322 57.4718H36.9005C37.0051 56.7267 37.372 56.1134 38.0004 55.6321C38.7076 55.0793 39.7149 54.8028 41.0246 54.8028C42.4909 54.8028 43.5905 55.0315 44.3237 55.4878C45.0829 55.9693 45.4627 56.6422 45.4627 57.5077V60.7901C45.4627 61.7521 45.2725 62.5034 44.8935 63.0443C44.5134 63.5855 44.0617 63.9766 43.5385 64.2167C42.9885 64.4814 42.4055 64.6434 41.7906 64.7036C41.1749 64.7635 40.6321 64.7938 40.1606 64.7938ZM42.9101 59.7802C42.5429 59.9488 42.0323 60.1048 41.378 60.2489L40.4749 60.4293C40.0034 60.5499 39.6629 60.7061 39.4535 60.8982C39.2702 61.1632 39.1788 61.4276 39.1788 61.6917C39.1788 62.0524 39.2966 62.3411 39.5322 62.5575C39.7678 62.7504 40.108 62.8459 40.5534 62.8459C41.2861 62.8459 41.8625 62.6541 42.2814 62.2691C42.7 61.8846 42.9101 61.3555 42.9101 60.6819V59.7802Z" fill="#24CDB0"/>
<path d="M49.1248 64.6133H46.3756V52.2057H47.7896C48.1559 52.2057 48.4703 52.3199 48.732 52.5482C48.9935 52.7769 49.1248 53.0593 49.1248 53.396V64.6133Z" fill="#24CDB0"/>
<path d="M60.0265 64.6133H57.3951V59.6358C57.3951 59.2751 57.3618 58.945 57.2968 58.6439C57.231 58.3436 57.0808 58.037 56.8451 57.7241C56.4521 57.2193 55.915 56.9667 55.2344 56.9667C54.5014 56.9667 53.9385 57.2074 53.5457 57.6879C53.1529 58.1695 52.9564 58.8305 52.9564 59.672V64.6133H50.2856V52.2057H51.6214C51.9878 52.2057 52.3021 52.3262 52.5636 52.5661C52.8251 52.8068 52.9564 53.0954 52.9564 53.4319V56.2812C53.4279 55.56 54.0957 55.1033 54.9599 54.9106C55.3053 54.8338 55.6447 54.7953 55.9777 54.7953C56.4774 54.7953 56.963 54.8819 57.4342 55.055C58.1666 55.3436 58.7823 55.8007 59.28 56.4255C59.7774 57.0512 60.0265 57.9167 60.0265 59.0226V64.6133Z" fill="#2A57E5"/>
<path d="M65.4168 64.7938C63.9238 64.7938 62.759 64.3489 61.9211 63.4591C61.0827 62.5936 60.6641 61.3555 60.6641 59.7441C60.6641 58.2054 61.0698 57.0029 61.8818 56.1372C62.7196 55.2476 63.8848 54.8028 65.3775 54.8028C66.9483 54.8028 68.166 55.2352 69.0297 56.1013C69.8676 56.9911 70.2868 58.2292 70.2868 59.8164C70.2868 59.9127 70.2868 59.9966 70.2868 60.0689C70.2868 60.1407 70.2868 60.1895 70.2868 60.213C70.2868 60.3336 70.2733 60.4175 70.2475 60.4655H63.4526C63.4782 61.2112 63.6747 61.7638 64.0417 62.1247C64.3819 62.5097 64.8924 62.7016 65.574 62.7016C66.0182 62.7016 66.3983 62.6179 66.7124 62.4493C66.7911 62.4256 66.863 62.3833 66.9285 62.3232C66.9937 62.2633 67.0661 62.1968 67.1445 62.1247C67.1704 62.0524 67.2687 61.9566 67.4394 61.8361C67.6095 61.716 67.8517 61.6556 68.166 61.6556H70.1296C69.8412 62.6659 69.2912 63.4354 68.4804 63.9642C67.6684 64.5175 66.6469 64.7938 65.4168 64.7938ZM65.4559 56.8945C64.8795 56.8945 64.4083 57.0631 64.0417 57.3995C63.6747 57.7365 63.4782 58.2173 63.4526 58.8421H67.4589C67.406 58.193 67.2233 57.7122 66.9089 57.3995C66.5682 57.0631 66.084 56.8945 65.4559 56.8945Z" fill="#2A57E5"/>
<path d="M74.4201 64.7938C73.4771 64.7938 72.6527 64.5592 71.9456 64.0903C71.2385 63.6217 70.8851 62.8459 70.8851 61.7638C70.8851 60.7539 71.2054 60.0327 71.8473 59.5997C72.489 59.167 73.3067 58.8783 74.302 58.7342C74.433 58.7342 74.5899 58.7163 74.7735 58.6801C74.9566 58.644 75.1663 58.6142 75.4022 58.5899C76.5536 58.4455 77.1299 58.1334 77.1299 57.6518C77.1299 57.2914 76.9268 57.057 76.5211 56.9486C76.1148 56.8404 75.7421 56.7863 75.4022 56.7863C75.035 56.7863 74.708 56.8349 74.4201 56.9306C74.1316 57.027 73.9222 57.2074 73.7914 57.4718H71.16C71.2643 56.7267 71.6313 56.1134 72.26 55.6321C72.9671 55.0793 73.9745 54.8028 75.2841 54.8028C76.7501 54.8028 77.85 55.0315 78.5836 55.4878C79.3424 55.9693 79.7223 56.6422 79.7223 57.5077V60.7901C79.7223 61.7521 79.532 62.5034 79.1525 63.0443C78.7732 63.5855 78.3215 63.9766 77.7977 64.2167C77.2478 64.4814 76.6648 64.6434 76.0504 64.7036C75.4347 64.7635 74.8913 64.7938 74.4201 64.7938ZM77.1693 59.7802C76.8024 59.9488 76.2915 60.1048 75.6378 60.2489L74.7342 60.4293C74.2629 60.5499 73.9222 60.7061 73.713 60.8982C73.5294 61.1632 73.438 61.4276 73.438 61.6917C73.438 62.0524 73.5558 62.3411 73.7914 62.5575C74.027 62.7504 74.3672 62.8459 74.8129 62.8459C75.5456 62.8459 76.1214 62.6541 76.5406 62.2691C76.9593 61.8846 77.1693 61.3555 77.1693 60.6819V59.7802Z" fill="#2A57E5"/>
<path d="M83.3846 64.6133H80.6351V52.2057H82.0488C82.4154 52.2057 82.7298 52.3199 82.9918 52.5482C83.2533 52.7769 83.3846 53.0593 83.3846 53.396V64.6133Z" fill="#2A57E5"/>
<path d="M87.8201 64.6421C87.2673 64.6421 86.6886 64.6207 86.0843 64.5774C85.0761 64.5051 84.5721 63.9164 84.5721 62.8097V52.2057H85.986C86.3257 52.2057 86.6271 52.3263 86.8891 52.5662C87.1506 52.8068 87.2819 53.0955 87.2819 53.4319V55.055H88.8927V55.5601C88.8927 55.9208 88.7614 56.2155 88.4999 56.4438C88.2376 56.6726 87.9235 56.7863 87.5569 56.7863H87.2819V62.1247C87.2819 62.5337 87.5434 62.7377 88.0678 62.7377H88.8927V64.6133C88.5467 64.6326 88.189 64.6421 87.8201 64.6421Z" fill="#2A57E5"/>
<path d="M99.2709 64.6133H96.6395V59.6358C96.6395 59.2751 96.6062 58.945 96.5412 58.6439C96.4754 58.3436 96.3251 58.037 96.0892 57.7241C95.6965 57.2193 95.1594 56.9667 94.4787 56.9667C93.7458 56.9667 93.1829 57.2074 92.7901 57.6879C92.3973 58.1695 92.2008 58.8305 92.2008 59.672V64.6133H89.53V52.2057H90.8658C91.2322 52.2057 91.5465 52.3262 91.808 52.5661C92.0695 52.8068 92.2008 53.0954 92.2008 53.4319V56.2812C92.6723 55.56 93.3401 55.1033 94.2043 54.9106C94.5497 54.8338 94.8891 54.7953 95.2221 54.7953C95.7217 54.7953 96.2073 54.8819 96.6786 55.055C97.411 55.3436 98.0267 55.8007 98.5244 56.4255C99.0218 57.0512 99.2709 57.9167 99.2709 59.0226V64.6133Z" fill="#2A57E5"/>
<path d="M65.516 38.1439C63.4699 45.6682 59.4826 44.6689 54.6517 38.3468C60.0205 34.3032 65.6826 29.1149 69.6179 23.7962C68.3008 28.9096 66.6033 34.147 65.516 38.1439ZM48.2326 39.0102C47.3224 39.6063 44.6341 41.4491 42.3656 42.5247C39.3265 43.9657 37.2238 43.3844 36.2905 42.2561C35.6593 41.493 35.0065 40.2324 34.4384 38.1439C32.971 32.7482 30.2695 24.7087 29.0857 18.2475C28.4027 14.5166 28.5081 13.2072 28.4966 12.633C28.4489 10.2959 29.3423 7.87775 31.4352 6.13407C33.6885 4.2574 36.6649 3.48953 39.6015 4.0281C42.2556 4.51494 46.2087 5.02105 50.0575 5.16091C47.1144 7.05051 45.4998 8.26934 42.1869 7.48907C41.2941 7.27929 40.3845 7.77326 40.1552 8.59312C39.9264 9.41324 40.4646 10.2487 41.3576 10.459C49.4015 12.351 50.3764 6.21825 60.7828 4.06926C65.5433 3.61988 69.6332 5.94672 70.9311 9.22747C74.4997 18.2517 57.4161 32.9928 48.2326 39.0102ZM57.4256 1.5928C56.5087 1.85984 52.4309 2.13401 51.9846 2.13401C47.8131 2.13401 43.1986 1.56113 40.2546 1.02151C36.2687 0.291103 32.2371 1.32682 29.1926 3.86317C26.3428 6.23672 25.08 9.58054 25.1662 12.856C25.3834 21.0957 28.6282 29.4292 31.1996 38.8869C31.9518 41.6537 33.1009 44.1686 35.1855 45.5162C36.8618 46.6 39.0196 46.9055 41.6723 46.0115C44.9861 44.8948 49.2234 42.2025 52.0234 40.2525C55.301 44.5199 58.366 46.5739 61.3574 46.5058C66.1579 46.4068 67.8779 42.1104 68.7551 38.8869C70.6989 31.7378 74.0595 19.9832 74.7885 12.8563C75.5761 5.15958 66.8481 -1.15255 57.4256 1.5928Z" fill="url(#paint0_linear)"/>
<defs>
<linearGradient id="paint0_linear" x1="0.823934" y1="57.4027" x2="97.5534" y2="-23.9344" gradientUnits="userSpaceOnUse">
<stop offset="0.284375" stop-color="#24CDB0"/>
<stop offset="1" stop-color="#2A57E5"/>
</linearGradient>
</defs>
</svg>
