<svg width="151" height="28" viewBox="0 0 151 28" fill="none" xmlns="http://www.w3.org/2000/svg">
<path d="M45.0897 21.0625C44.3274 21.0625 43.5806 20.9477 42.8483 20.7195C42.1159 20.4909 41.5302 20.121 41.091 19.6096C40.2407 18.6147 39.8163 17.2557 39.8163 15.5338C39.8163 13.8385 40.2407 12.4804 41.091 11.4574C41.9696 10.4081 43.0971 9.88371 44.4744 9.88371C45.2064 9.88371 45.8513 10.0186 46.4081 10.287C46.9939 10.61 47.4629 11.0275 47.8143 11.538V6.93748H49.3083C49.7182 6.93748 50.0699 7.0789 50.3631 7.36115C50.6557 7.6437 50.8026 7.9602 50.8026 8.30977V16.1792C50.8026 18.09 50.2017 19.3814 49.001 20.0537C47.7992 20.7262 46.4959 21.0625 45.0897 21.0625ZM45.2656 12.305C44.5033 12.305 43.9034 12.5876 43.4636 13.1524C43.0241 13.6909 42.8049 14.4438 42.8049 15.4124C42.8049 16.4889 43.0241 17.3091 43.4636 17.8742C43.9034 18.4393 44.5329 18.7215 45.3533 18.7215C46.1442 18.7215 46.7595 18.4393 47.1993 17.8742C47.6089 17.3091 47.8143 16.4889 47.8143 15.4124C47.8143 14.4438 47.5944 13.677 47.1553 13.1119C46.6862 12.5743 46.0564 12.305 45.2656 12.305Z" fill="#24CDB0"/>
<path d="M56.8334 21.0625C55.1636 21.0625 53.8596 20.5647 52.9225 19.5692C51.9843 18.6008 51.5159 17.2155 51.5159 15.4125C51.5159 13.6909 51.9699 12.3455 52.8787 11.3768C53.8159 10.3815 55.1195 9.88371 56.7897 9.88371C58.5476 9.88371 59.9097 10.3676 60.8761 11.3366C61.8139 12.3322 62.283 13.7175 62.283 15.4933C62.283 15.6011 62.283 15.695 62.283 15.7759C62.283 15.8562 62.283 15.9108 62.283 15.9371C62.283 16.072 62.2675 16.1659 62.2389 16.2196H54.636C54.6649 17.054 54.8848 17.6722 55.2954 18.0761C55.676 18.5069 56.247 18.7215 57.0092 18.7215C57.5072 18.7215 57.9319 18.628 58.2836 18.4393C58.3717 18.4127 58.4521 18.3655 58.5254 18.2982C58.5984 18.2311 58.6794 18.1567 58.7671 18.0761C58.7961 17.9952 58.906 17.8881 59.0967 17.7531C59.2867 17.6188 59.558 17.5512 59.9097 17.5512H62.1071C61.7843 18.6817 61.169 19.5426 60.2611 20.1343C59.3526 20.7534 58.2103 21.0625 56.8334 21.0625ZM56.8774 12.2241C56.2325 12.2241 55.7053 12.4128 55.2954 12.7892C54.8848 13.1662 54.6649 13.7042 54.636 14.4033H59.1189C59.0597 13.677 58.8549 13.1391 58.5035 12.7892C58.1222 12.4128 57.5808 12.2241 56.8774 12.2241Z" fill="#24CDB0"/>
<path d="M73.4113 20.8606H71.8733C71.4339 20.8606 71.0748 20.7333 70.7967 20.4773C70.5179 20.2219 70.3791 19.8922 70.3791 19.4886V14C70.3791 13.3543 70.1662 12.884 69.7422 12.5875C69.3168 12.2917 68.841 12.1435 68.3138 12.1435C67.7866 12.1435 67.3175 12.2917 66.9073 12.5875C66.4971 12.884 66.2923 13.3543 66.2923 14V20.8606H63.2162V14.5648C63.2162 12.7357 63.7358 11.5117 64.7761 10.8925C65.8158 10.2737 66.9658 9.93772 68.226 9.88369C69.5149 9.88369 70.7012 10.1931 71.7853 10.8116C72.869 11.4311 73.4113 12.682 73.4113 14.5648V20.8606Z" fill="#24CDB0"/>
<path d="M78.3305 20.8928C77.712 20.8928 77.0645 20.8688 76.3884 20.8204C75.2603 20.7395 74.6964 20.0808 74.6964 18.8426V6.97792H76.2785C76.6588 6.97792 76.996 7.11285 77.2889 7.38123C77.5818 7.65049 77.7284 7.97348 77.7284 8.34992V10.166H79.5303V10.7311C79.5303 11.1347 79.3834 11.4644 79.0909 11.7198C78.7977 11.9758 78.4463 12.1031 78.0364 12.1031H77.7284V18.0761C77.7284 18.5338 78.0213 18.762 78.6077 18.762H79.5303V20.8606C79.1436 20.8821 78.7433 20.8928 78.3305 20.8928Z" fill="#24CDB0"/>
<path d="M83.9353 21.0625C82.8809 21.0625 81.9578 20.8001 81.167 20.2754C80.3758 19.7511 79.98 18.883 79.98 17.6722C79.98 16.5423 80.3388 15.7354 81.057 15.251C81.7743 14.7668 82.6899 14.4438 83.8035 14.2826C83.9498 14.2826 84.1257 14.2625 84.3311 14.222C84.5352 14.1816 84.7702 14.1482 85.0339 14.1211C86.3227 13.9596 86.9676 13.6103 86.9676 13.0715C86.9676 12.6682 86.7403 12.406 86.2864 12.2846C85.8321 12.1636 85.4145 12.1031 85.0339 12.1031C84.6233 12.1031 84.2575 12.1574 83.9353 12.2646C83.6126 12.3723 83.3785 12.5743 83.2322 12.8701H80.2877C80.4047 12.0363 80.8153 11.3502 81.5184 10.8117C82.3096 10.1931 83.4367 9.88371 84.9021 9.88371C86.5426 9.88371 87.773 10.1397 88.5934 10.6502C89.4428 11.189 89.8678 11.9419 89.8678 12.9103V16.5828C89.8678 17.6593 89.655 18.4998 89.2309 19.1051C88.8056 19.7106 88.3002 20.1482 87.7148 20.4168C87.0995 20.713 86.4471 20.8942 85.7592 20.9616C85.0702 21.0286 84.4629 21.0625 83.9353 21.0625ZM87.0117 15.4529C86.6008 15.6416 86.0295 15.816 85.2975 15.9773L84.287 16.1792C83.7595 16.3141 83.3785 16.4889 83.1441 16.7038C82.939 17.0003 82.8368 17.2961 82.8368 17.5916C82.8368 17.9952 82.9686 18.3182 83.2322 18.5603C83.4959 18.7762 83.8765 18.883 84.3748 18.883C85.1946 18.883 85.8395 18.6684 86.3083 18.2376C86.7767 17.8075 87.0117 17.2155 87.0117 16.4617V15.4529Z" fill="#24CDB0"/>
<path d="M93.9653 20.8606H90.8893V6.9779H92.4713C92.8812 6.9779 93.2329 7.10574 93.5258 7.36113C93.8184 7.6171 93.9653 7.93301 93.9653 8.30974V20.8606Z" fill="#24CDB0"/>
<path d="M106.163 20.8606H103.219V15.2914C103.219 14.8878 103.181 14.5184 103.109 14.1816C103.035 13.8456 102.867 13.5025 102.603 13.1523C102.164 12.5875 101.563 12.305 100.801 12.305C99.9809 12.305 99.3511 12.5742 98.9117 13.1119C98.4722 13.6507 98.2523 14.3903 98.2523 15.3318V20.8606H95.264V6.9779H96.7586C97.1685 6.9779 97.5202 7.11283 97.8128 7.3812C98.1054 7.65047 98.2523 7.97346 98.2523 8.3499V11.5379C98.7798 10.731 99.527 10.22 100.494 10.0044C100.88 9.91853 101.26 9.87542 101.633 9.87542C102.192 9.87542 102.735 9.97226 103.262 10.1659C104.082 10.4889 104.771 11.0003 105.328 11.6994C105.884 12.3995 106.163 13.3679 106.163 14.6052V20.8606Z" fill="#2A57E5"/>
<path d="M112.194 21.0625C110.524 21.0625 109.22 20.5647 108.283 19.5692C107.345 18.6008 106.876 17.2155 106.876 15.4125C106.876 13.6909 107.33 12.3455 108.239 11.3768C109.176 10.3815 110.48 9.88371 112.15 9.88371C113.908 9.88371 115.27 10.3676 116.236 11.3366C117.174 12.3322 117.643 13.7175 117.643 15.4933C117.643 15.6011 117.643 15.695 117.643 15.7759C117.643 15.8562 117.643 15.9108 117.643 15.9371C117.643 16.072 117.628 16.1659 117.599 16.2196H109.996C110.025 17.054 110.245 17.6722 110.655 18.0761C111.036 18.5069 111.607 18.7215 112.37 18.7215C112.867 18.7215 113.292 18.628 113.644 18.4393C113.732 18.4127 113.812 18.3655 113.885 18.2982C113.958 18.2311 114.039 18.1567 114.127 18.0761C114.156 17.9952 114.266 17.8881 114.457 17.7531C114.647 17.6188 114.918 17.5512 115.27 17.5512H117.467C117.144 18.6817 116.529 19.5426 115.622 20.1343C114.713 20.7534 113.57 21.0625 112.194 21.0625ZM112.238 12.2241C111.593 12.2241 111.066 12.4128 110.655 12.7892C110.245 13.1662 110.025 13.7042 109.996 14.4033H114.479C114.42 13.677 114.215 13.1391 113.864 12.7892C113.482 12.4128 112.94 12.2241 112.238 12.2241Z" fill="#2A57E5"/>
<path d="M122.268 21.0625C121.213 21.0625 120.29 20.8001 119.499 20.2754C118.708 19.7511 118.312 18.883 118.312 17.6722C118.312 16.5423 118.671 15.7354 119.389 15.251C120.107 14.7668 121.022 14.4438 122.136 14.2826C122.282 14.2826 122.458 14.2625 122.663 14.222C122.868 14.1816 123.103 14.1482 123.367 14.1211C124.655 13.9596 125.3 13.6103 125.3 13.0715C125.3 12.6682 125.072 12.406 124.618 12.2846C124.164 12.1636 123.747 12.1031 123.367 12.1031C122.956 12.1031 122.59 12.1574 122.268 12.2646C121.945 12.3723 121.711 12.5743 121.564 12.8701H118.62C118.737 12.0363 119.147 11.3502 119.851 10.8117C120.642 10.1931 121.769 9.88371 123.234 9.88371C124.875 9.88371 126.105 10.1397 126.926 10.6502C127.775 11.189 128.2 11.9419 128.2 12.9103V16.5828C128.2 17.6593 127.987 18.4998 127.563 19.1051C127.138 19.7106 126.633 20.1482 126.047 20.4168C125.431 20.713 124.779 20.8942 124.092 20.9616C123.403 21.0286 122.795 21.0625 122.268 21.0625ZM125.344 15.4529C124.933 15.6416 124.362 15.816 123.63 15.9773L122.619 16.1792C122.092 16.3141 121.711 16.4889 121.476 16.7038C121.271 17.0003 121.169 17.2961 121.169 17.5916C121.169 17.9952 121.301 18.3182 121.564 18.5603C121.828 18.7762 122.209 18.883 122.707 18.883C123.527 18.883 124.171 18.6684 124.64 18.2376C125.109 17.8075 125.344 17.2155 125.344 16.4617V15.4529Z" fill="#2A57E5"/>
<path d="M132.298 20.8606H129.222V6.9779H130.803C131.214 6.9779 131.565 7.10574 131.859 7.36113C132.151 7.6171 132.298 7.93301 132.298 8.30974V20.8606Z" fill="#2A57E5"/>
<path d="M137.261 20.8928C136.642 20.8928 135.995 20.8688 135.319 20.8204C134.19 20.7395 133.627 20.0808 133.627 18.8426V6.97792H135.209C135.589 6.97792 135.926 7.11285 136.219 7.38123C136.512 7.65049 136.659 7.97348 136.659 8.34992V10.166H138.461V10.7311C138.461 11.1347 138.314 11.4644 138.021 11.7198C137.728 11.9758 137.376 12.1031 136.966 12.1031H136.659V18.0761C136.659 18.5338 136.951 18.762 137.538 18.762H138.461V20.8606C138.074 20.8821 137.673 20.8928 137.261 20.8928Z" fill="#2A57E5"/>
<path d="M150.073 20.8606H147.128V15.2914C147.128 14.8878 147.091 14.5184 147.019 14.1816C146.945 13.8456 146.777 13.5025 146.513 13.1523C146.073 12.5875 145.472 12.305 144.711 12.305C143.891 12.305 143.261 12.5742 142.821 13.1119C142.382 13.6507 142.162 14.3903 142.162 15.3318V20.8606H139.174V6.9779H140.668C141.078 6.9779 141.43 7.11283 141.723 7.3812C142.015 7.65047 142.162 7.97346 142.162 8.3499V11.5379C142.69 10.731 143.437 10.22 144.404 10.0044C144.79 9.91853 145.17 9.87542 145.543 9.87542C146.102 9.87542 146.645 9.97226 147.172 10.1659C147.992 10.4889 148.681 11.0003 149.237 11.6994C149.794 12.3995 150.073 13.3679 150.073 14.6052V20.8606Z" fill="#2A57E5"/>
<path d="M24.0964 22.6463C22.8746 27.1393 20.4937 26.5426 17.609 22.7675C20.8149 20.3529 24.1959 17.2548 26.5458 14.0789C25.7593 17.1323 24.7456 20.2596 24.0964 22.6463ZM13.7761 23.1636C13.2325 23.5195 11.6273 24.62 10.2727 25.2622C8.45796 26.1227 7.20238 25.7756 6.64511 25.1018C6.26816 24.6461 5.87835 23.8934 5.53915 22.6463C4.66292 19.4244 3.04978 14.6238 2.3429 10.7656C1.93507 8.53782 1.99804 7.75597 1.99117 7.41311C1.96269 6.01755 2.49612 4.57361 3.74586 3.53241C5.09134 2.4118 6.86867 1.95329 8.62215 2.27488C10.207 2.56559 12.5675 2.8678 14.8657 2.95131C13.1083 4.07964 12.1442 4.80744 10.166 4.34152C9.63289 4.21625 9.08969 4.51122 8.95278 5.00077C8.8162 5.49049 9.13756 5.98934 9.67081 6.11492C14.474 7.24467 15.0562 3.58268 21.2701 2.29946C24.1127 2.03112 26.5549 3.42054 27.3299 5.37956C29.4608 10.7682 19.2597 19.5704 13.7761 23.1636ZM19.2654 0.8207C18.7179 0.980158 16.2829 1.14387 16.0165 1.14387C13.5256 1.14387 10.7701 0.801792 9.01214 0.479568C6.63207 0.0434265 4.22472 0.661875 2.40673 2.1764C0.705058 3.59371 -0.04901 5.59039 0.00246209 7.54626C0.132172 12.4664 2.06975 17.4425 3.60517 23.09C4.05435 24.7421 4.74047 26.2438 5.98524 27.0485C6.9862 27.6957 8.27472 27.8781 9.85869 27.3443C11.8374 26.6775 14.3676 25.0698 16.0396 23.9054C17.9968 26.4536 19.8269 27.6801 21.6132 27.6394C24.4797 27.5803 25.5067 25.0148 26.0305 23.09C27.1912 18.8211 29.198 11.8021 29.6332 7.54641C30.1035 2.95052 24.8918 -0.818619 19.2654 0.8207Z" fill="url(#paint0_linear)"/>
<defs>
<linearGradient id="paint0_linear" x1="-14.5329" y1="34.1463" x2="43.2268" y2="-14.4223" gradientUnits="userSpaceOnUse">
<stop offset="0.284375" stop-color="#24CDB0"/>
<stop offset="1" stop-color="#2A57E5"/>
</linearGradient>
</defs>
</svg>
