<svg width="17" height="16" viewBox="0 0 17 16" fill="none" xmlns="http://www.w3.org/2000/svg">
<g clip-path="url(#clip0)">
<path d="M16.3096 0H11.9346C11.6757 0 11.4658 0.209875 11.4658 0.46875C11.4658 0.727625 11.6757 0.9375 11.9346 0.9375H15.1779L9.76841 6.347C8.78395 5.51572 7.55045 5.0625 6.24707 5.0625C4.78632 5.0625 3.41301 5.63134 2.38007 6.66425C1.34713 7.69716 0.77832 9.0705 0.77832 10.5312C0.77832 11.992 1.34716 13.3653 2.38007 14.3982C3.41298 15.4312 4.78632 16 6.24707 16C7.70782 16 9.08113 15.4312 10.1141 14.3982C11.147 13.3653 11.7158 11.992 11.7158 10.5312C11.7158 9.22787 11.2626 7.99438 10.4313 7.00991L15.8408 1.60041V4.84375C15.8408 5.10263 16.0507 5.3125 16.3096 5.3125C16.5684 5.3125 16.7783 5.10263 16.7783 4.84375V0.46875C16.7783 0.209875 16.5684 0 16.3096 0ZM9.45116 13.7353C8.59532 14.5912 7.45741 15.0625 6.24707 15.0625C5.03673 15.0625 3.89882 14.5912 3.04298 13.7353C2.18716 12.8795 1.71582 11.7416 1.71582 10.5312C1.71582 9.32091 2.18716 8.183 3.04298 7.32716C3.89882 6.47134 5.03673 6 6.24707 6C7.45741 6 8.59532 6.47134 9.45116 7.32716C10.307 8.183 10.7783 9.32091 10.7783 10.5312C10.7783 11.7416 10.307 12.8795 9.45116 13.7353Z" fill="#0009FF"/>
</g>
<defs>
<clipPath id="clip0">
<rect width="16" height="16" fill="white" transform="translate(0.77832)"/>
</clipPath>
</defs>
</svg>
