<svg width="25" height="24" viewBox="0 0 25 24" fill="none" xmlns="http://www.w3.org/2000/svg">
<path d="M1.31769 17.4856C1.31769 15.3293 4.31769 15.3293 5.81769 13.8918C6.56769 13.1731 4.31769 13.1731 4.31769 9.57935C4.31769 7.18375 5.31744 5.9856 7.31769 5.9856C9.31794 5.9856 10.3177 7.18375 10.3177 9.57935C10.3177 13.1731 8.06769 13.1731 8.81769 13.8918C10.3177 15.3293 13.3177 15.3293 13.3177 17.4856" stroke="#6B7386" stroke-linecap="round"/>
<path d="M12.3124 15.8019C12.8794 15.4274 13.6154 15.1578 14.3197 14.8327C14.8704 14.5785 15.4017 14.2905 15.8176 13.8918C16.5676 13.1731 14.3176 13.1731 14.3176 9.57935C14.3176 7.18375 15.3174 5.9856 17.3176 5.9856C19.3179 5.9856 20.3176 7.18375 20.3176 9.57935C20.3176 13.1731 18.0676 13.1731 18.8176 13.8918C20.3176 15.3293 23.3176 15.3293 23.3176 17.4856" stroke="#6B7386" stroke-linecap="round"/>
</svg>
