<svg width="52" height="52" viewBox="0 0 52 52" fill="none" xmlns="http://www.w3.org/2000/svg">
<g clip-path="url(#clip0)">
<path d="M25.5998 1.83203C11.5169 1.83203 0.10083 11.9106 0.10083 24.3457C0.10083 30.6508 3.0444 36.3429 7.77322 40.4308C6.7363 46.4215 0.0451032 48.8496 0.50485 50.4995C6.15714 52.838 17.4796 47.6892 20.2441 46.3538C21.9736 46.6802 23.7628 46.8613 25.5998 46.8613C39.6828 46.8613 51.1008 36.7827 51.1008 24.3457C51.1008 11.9086 39.6828 1.83203 25.5998 1.83203ZM23.7927 25.2831C23.7927 31.4051 21.084 34.8402 15.7461 35.491C15.7342 35.493 15.7262 35.493 15.7143 35.493C15.6566 35.493 15.5929 35.4711 15.5511 35.4313C15.4974 35.3856 15.4655 35.3159 15.4655 35.2442V32.1335C15.4655 32.0419 15.5153 31.9584 15.5929 31.9166C18.027 30.5891 19.243 28.4993 19.3047 25.5338H15.7143C15.579 25.5338 15.4655 25.4224 15.4655 25.2851V17.4574C15.4655 17.3201 15.579 17.2087 15.7143 17.2087H23.5439C23.6793 17.2087 23.7927 17.3201 23.7927 17.4574V25.2831ZM37.6547 25.2831C37.6547 31.3115 35.2565 34.3646 29.6281 35.489C29.6122 35.491 29.5962 35.493 29.5803 35.493C29.5226 35.493 29.4669 35.4731 29.4211 35.4373C29.3634 35.3915 29.3315 35.3179 29.3315 35.2442V32.1335C29.3315 32.0419 29.3813 31.9584 29.4589 31.9166C31.893 30.5891 33.109 28.4993 33.1707 25.5338H29.5803C29.445 25.5338 29.3315 25.4224 29.3315 25.2851V17.4574C29.3315 17.3201 29.445 17.2087 29.5803 17.2087H37.406C37.5453 17.2087 37.6547 17.3201 37.6547 17.4574V25.2831Z" fill="#2A57E6"/>
</g>
<defs>
<clipPath id="clip0">
<rect width="51" height="51" fill="white" transform="translate(0.10083 0.966309)"/>
</clipPath>
</defs>
</svg>
